HIERARCHY
ROOT Hips
{
	OFFSET 56.877701 -32.693596 43.373703
	CHANNELS 6 Xposition Yposition Zposition Zrotation Xrotation Yrotation
	JOINT Chest
	{
		OFFSET -0.779999 1.005800 5.403099
		CHANNELS 6 Xposition Yposition Zposition Zrotation Xrotation Yrotation
		JOINT Chest2
		{
			OFFSET 0.000000 0.000000 4.236801
			CHANNELS 6 Xposition Yposition Zposition Zrotation Xrotation Yrotation
			JOINT Neck
			{
				OFFSET 0.000000 0.000000 9.874401
				CHANNELS 6 Xposition Yposition Zposition Zrotation Xrotation Yrotation
				JOINT Head
				{
					OFFSET 0.000000 0.000002 2.173893
					CHANNELS 6 Xposition Yposition Zposition Zrotation Xrotation Yrotation
					End Site
					{
						OFFSET 0.000000 0.000000 6.508102
					}
				}
			}
			JOINT LeftCollar
			{
				OFFSET 2.681599 -0.377600 5.432499
				CHANNELS 6 Xposition Yposition Zposition Zrotation Xrotation Yrotation
				JOINT LeftShoulder
				{
					OFFSET 5.161499 0.000000 0.000000
					CHANNELS 6 Xposition Yposition Zposition Zrotation Xrotation Yrotation
					JOINT LeftElbow
					{
						OFFSET 0.000000 0.000000 -10.869099
						CHANNELS 6 Xposition Yposition Zposition Zrotation Xrotation Yrotation
						JOINT LeftWrist
						{
							OFFSET 0.000000 0.000000 -13.344799
							CHANNELS 6 Xposition Yposition Zposition Zrotation Xrotation Yrotation
							End Site
							{
								OFFSET 0.000000 0.000000 -2.173901
							}
						}
					}
				}
			}
			JOINT RightCollar
			{
				OFFSET -2.381901 -1.419600 6.136600
				CHANNELS 6 Xposition Yposition Zposition Zrotation Xrotation Yrotation
				JOINT RightShoulder
				{
					OFFSET -4.550499 0.000000 0.000000
					CHANNELS 6 Xposition Yposition Zposition Zrotation Xrotation Yrotation
					JOINT RightElbow
					{
						OFFSET 0.000000 0.000000 -11.106499
						CHANNELS 6 Xposition Yposition Zposition Zrotation Xrotation Yrotation
						JOINT RightWrist
						{
							OFFSET 0.000000 0.000000 -12.874298
							CHANNELS 6 Xposition Yposition Zposition Zrotation Xrotation Yrotation
							End Site
							{
								OFFSET 0.000000 0.000000 -2.173901
							}
						}
					}
				}
			}
		}
	}
	JOINT LeftHip
	{
		OFFSET 2.431900 0.469601 -2.489399
		CHANNELS 6 Xposition Yposition Zposition Zrotation Xrotation Yrotation
		JOINT LeftKnee
		{
			OFFSET 0.000000 -0.000004 -18.200201
			CHANNELS 6 Xposition Yposition Zposition Zrotation Xrotation Yrotation
			JOINT LeftAnkle
			{
				OFFSET 0.000000 0.000000 -16.279900
				CHANNELS 6 Xposition Yposition Zposition Zrotation Xrotation Yrotation
				End Site
				{
					OFFSET 0.000000 -8.394100 0.000000
				}
			}
		}
	}
	JOINT RightHip
	{
		OFFSET -1.987999 -0.073502 -2.713001
		CHANNELS 6 Xposition Yposition Zposition Zrotation Xrotation Yrotation
		JOINT RightKnee
		{
			OFFSET 0.000000 -0.000004 -19.547802
			CHANNELS 6 Xposition Yposition Zposition Zrotation Xrotation Yrotation
			JOINT RightAnkle
			{
				OFFSET 0.000000 0.000000 -14.881199
				CHANNELS 6 Xposition Yposition Zposition Zrotation Xrotation Yrotation
				End Site
				{
					OFFSET 0.000000 -7.922699 0.000000
				}
			}
		}
	}
}
MOTION
Frames: 6
Frame Time: 0.041667
59.730499 -30.267496 25.758402 1767.579847 44.169826 -2.160289 -0.779996 1.005809 5.403105 23.507081 10.492102 -7.755372 0.000005 -0.000002 4.236802 -4.745713 -7.065207 -1.407976 0.000011 -0.000001 9.874397 -53.884800 -6.295841 -10.453112 0.000007 -0.000001 2.173888 -3.423742 0.876386 -8.914348 2.681597 -0.377602 5.432494 -20.382058 18.441248 2.471329 5.161502 -0.000006 -0.000003 139.612222 -176.273222 156.008283 0.000002 0.000012 -10.869095 18.871468 -0.242017 -2.137925 0.000001 0.000001 -13.344804 -0.804690 15.118468 -57.504708 -2.381899 -1.419596 6.136591 36.652445 23.015745 -23.100682 -4.550502 -0.000003 0.000006 -685.703236 -428.311327 -283.806245 0.000003 0.000002 -11.106491 -130.629840 -39.172446 -143.523721 0.000007 -0.000002 -12.874298 -767.303561 -5.281145 -10.208507 2.431897 0.469604 -2.489391 145.951252 -48.433524 151.229691 0.000007 -0.000003 -18.200203 -109.103516 44.121584 106.409423 0.000002 0.000008 -16.279907 57.854120 14.564738 31.015565 -1.987997 -0.073496 -2.712998 -89.659074 -33.207553 -103.852651 -0.000003 -0.000010 -19.547794 -523.781745 47.707369 -160.916675 -0.000003 0.000007 -14.881205 530.038744 151.174653 180.511791
59.797901 -30.243896 25.698803 1767.193641 44.142628 -1.927500 -0.780003 1.005806 5.403094 23.616002 10.932388 -7.855979 0.000008 -0.000001 4.236797 -4.908112 -7.037123 -1.269501 -0.000002 -0.000002 9.874394 -53.431928 -5.863827 -10.302793 0.000000 -0.000003 2.173896 -3.408090 0.879399 -8.829298 2.681591 -0.377604 5.432497 -20.507689 18.658332 2.271080 5.161508 0.000002 0.000004 138.075033 -176.459249 155.368553 -0.000002 0.000012 -10.869099 18.222118 -0.272364 -1.934966 -0.000009 -0.000006 -13.344801 -0.465928 15.440766 -56.714288 -2.381906 -1.419596 6.136602 36.902740 23.034982 -23.591897 -4.550497 -0.000004 -0.000005 -685.304189 -427.562083 -284.486969 0.000000 -0.000010 -11.106487 -130.499930 -38.805996 -143.778118 -0.000002 -0.000006 -12.874300 -767.006748 -5.330811 -10.250955 2.431897 0.469603 -2.489403 146.178588 -48.183972 151.420308 0.000002 0.000001 -18.200199 -109.380528 44.078356 106.605668 -0.000000 0.000006 -16.279907 57.997151 14.679466 31.176549 -1.988005 -0.073488 -2.713003 -89.772243 -33.293720 -104.150440 0.000001 -0.000010 -19.547794 -524.202430 47.402927 -160.689722 -0.000001 0.000004 -14.881194 530.038690 151.207069 180.118427
59.861900 -30.220196 25.642006 1766.797708 44.148184 -1.675219 -0.779993 1.005796 5.403106 23.739277 11.320955 -7.953591 0.000001 -0.000004 4.236801 -5.036889 -6.967009 -1.270131 0.000007 0.000004 9.874395 -53.018920 -5.572642 -10.071757 -0.000002 0.000004 2.173895 -3.369333 0.908177 -8.779124 2.681606 -0.377594 5.432498 -20.678101 18.761111 2.181118 5.161507 0.000000 0.000002 136.614138 -176.635645 154.695056 0.000002 0.000008 -10.869096 17.359860 -0.319048 -1.652489 -0.000002 -0.000004 -13.344811 -0.057748 15.675272 -55.838303 -2.381892 -1.419586 6.136593 36.986332 23.073113 -23.837224 -4.550494 -0.000002 0.000001 -685.237854 -426.844449 -285.497017 -0.000000 -0.000006 -11.106489 -129.882358 -38.336021 -143.755688 0.000007 0.000002 -12.874301 -766.893531 -5.544149 -10.350813 2.431903 0.469593 -2.489397 146.433669 -47.916731 151.641825 0.000005 -0.000003 -18.200195 -109.666999 44.021368 106.796285 0.000008 0.000001 -16.279905 58.152265 14.792381 31.345633 -1.988000 -0.073507 -2.713000 -89.863911 -33.368623 -104.471425 0.000000 -0.000001 -19.547798 -524.367939 47.165827 -160.681184 -0.000007 -0.000003 -14.881196 530.036449 151.208435 179.898713
59.923798 -30.200697 25.588903 1766.080374 44.114095 -1.274596 -0.779999 1.005800 5.403092 24.073299 11.793940 -7.980902 0.000006 -0.000002 4.236805 -5.194359 -6.896194 -1.273882 0.000002 -0.000001 9.874402 -52.538017 -5.275004 -9.877013 0.000001 0.000002 2.173891 -3.363145 0.956006 -8.711882 2.681604 -0.377598 5.432500 -20.803583 18.834938 2.066441 5.161505 0.000000 0.000004 135.400755 -176.736008 153.969007 0.000003 0.000001 -10.869096 16.162205 -0.400173 -1.273863 0.000001 -0.000000 -13.344806 0.240297 15.188911 -53.962251 -2.381896 -1.419596 6.136595 36.818743 23.142035 -23.604225 -4.550501 -0.000009 0.000001 -685.767221 -426.248009 -287.374554 0.000002 -0.000011 -11.106491 -129.002917 -38.014500 -143.465501 0.000005 -0.000006 -12.874299 -766.717476 -5.719409 -10.551608 2.431902 0.469604 -2.489405 146.870200 -47.708352 151.786857 -0.000002 -0.000010 -18.200203 -109.873640 43.984516 106.942826 0.000005 -0.000000 -16.279903 58.315827 14.897367 31.537360 -1.988000 -0.073495 -2.713006 -89.670951 -33.493851 -104.721861 -0.000005 -0.000007 -19.547796 -524.403565 46.937968 -160.750742 0.000002 0.000002 -14.881202 530.035575 151.198900 179.720937
59.980103 -30.184000 25.536703 1765.812850 44.092276 -1.147222 -0.779994 1.005805 5.403093 24.087203 12.235421 -8.032288 0.000004 -0.000001 4.236793 -5.348133 -6.829742 -1.274304 0.000003 -0.000002 9.874404 -52.050136 -4.988724 -9.693275 -0.000002 -0.000003 2.173893 -3.383921 1.037121 -8.649125 2.681599 -0.377602 5.432497 -20.866178 18.881305 1.915504 5.161512 0.000000 -0.000007 134.239869 -176.777522 153.207481 0.000003 0.000004 -10.869097 14.743452 -0.493248 -0.858016 -0.000003 0.000006 -13.344800 0.715908 15.975211 -53.898252 -2.381901 -1.419592 6.136606 36.651768 23.149528 -23.497092 -4.550507 -0.000003 0.000002 -686.237193 -425.434397 -289.092456 0.000005 -0.000004 -11.106491 -127.944866 -37.619958 -142.999381 -0.000004 -0.000006 -12.874299 -766.418477 -5.927820 -10.794640 2.431905 0.469607 -2.489399 147.064887 -47.534783 152.022334 0.000004 -0.000003 -18.200203 -110.042393 43.949054 107.072696 0.000003 -0.000004 -16.279905 58.489458 14.986343 31.748130 -1.987990 -0.073491 -2.713008 -89.788547 -33.470898 -104.980083 -0.000008 0.000003 -19.547798 -524.267508 46.717760 -160.879259 0.000002 0.000005 -14.881195 530.021969 151.134342 179.739543
60.033699 -30.169796 25.484703 1765.564340 44.053842 -1.024487 -0.779996 1.005799 5.403096 24.085294 12.692301 -8.073561 0.000003 -0.000003 4.236808 -5.526236 -6.750508 -1.272301 -0.000013 0.000010 9.874405 -51.621709 -4.677656 -9.508084 0.000001 -0.000006 2.173896 -3.498700 1.172468 -8.685235 2.681597 -0.377590 5.432497 -20.836938 18.900045 1.666038 5.161505 -0.000002 -0.000010 133.137845 -176.708264 152.439645 0.000007 0.000011 -10.869100 13.182373 -0.585450 -0.437191 0.000003 0.000006 -13.344802 1.103584 16.680121 -53.891173 -2.381899 -1.419584 6.136596 36.613806 23.073532 -24.120813 -4.550497 -0.000001 0.000006 -686.023654 -424.424567 -289.825745 -0.000001 -0.000002 -11.106491 -126.374810 -37.134331 -142.410769 -0.000003 0.000001 -12.874301 -766.036643 -6.007425 -11.923804 2.431906 0.469595 -2.489401 147.250081 -47.389871 152.257170 0.000002 -0.000003 -18.200199 -110.202015 43.917464 107.199935 -0.000006 -0.000001 -16.279903 58.671168 15.057516 31.964288 -1.987995 -0.073500 -2.713006 -89.892796 -33.382041 -105.209768 -0.000010 -0.000002 -19.547796 -524.043805 46.497472 -161.036313 0.000002 0.000000 -14.881204 530.004101 151.024430 179.896131
